<mxfile host="app.diagrams.net" modified="2021-04-30T17:15:05.558Z" agent="5.0 (Windows NT 10.0; Win64; x64) AppleWebKit/537.36 (KHTML, like Gecko) Chrome/90.0.4430.85 Safari/537.36" etag="wWoJNLiOBWwx0wwtyu8L" version="14.6.3" type="github">
  <diagram id="hBVZQtiB4tx4bC_61tEL" name="Page-1">
    <mxGraphModel dx="1038" dy="547" grid="1" gridSize="10" guides="1" tooltips="1" connect="1" arrows="1" fold="1" page="1" pageScale="1" pageWidth="1100" pageHeight="850" math="0" shadow="0">
      <root>
        <mxCell id="0" />
        <mxCell id="1" parent="0" />
        <mxCell id="DHaG8NmXC3Zvu9ioILnj-1" value="" style="rounded=1;whiteSpace=wrap;html=1;" vertex="1" parent="1">
          <mxGeometry x="20" y="10" width="260" height="210" as="geometry" />
        </mxCell>
        <mxCell id="DHaG8NmXC3Zvu9ioILnj-2" value="Get Service" style="rounded=1;whiteSpace=wrap;html=1;fillColor=#dae8fc;strokeColor=#6c8ebf;" vertex="1" parent="1">
          <mxGeometry x="90" y="60" width="120" height="50" as="geometry" />
        </mxCell>
        <mxCell id="DHaG8NmXC3Zvu9ioILnj-3" value="Provide Service" style="rounded=1;whiteSpace=wrap;html=1;fillColor=#f8cecc;strokeColor=#b85450;" vertex="1" parent="1">
          <mxGeometry x="90" y="130" width="120" height="50" as="geometry" />
        </mxCell>
        <mxCell id="DHaG8NmXC3Zvu9ioILnj-5" value="" style="rounded=1;whiteSpace=wrap;html=1;" vertex="1" parent="1">
          <mxGeometry x="390" y="10" width="290" height="200" as="geometry" />
        </mxCell>
        <mxCell id="DHaG8NmXC3Zvu9ioILnj-6" value="SIGNUP" style="rounded=1;whiteSpace=wrap;html=1;fillColor=#d5e8d4;strokeColor=#82b366;" vertex="1" parent="1">
          <mxGeometry x="470" y="125" width="150" height="60" as="geometry" />
        </mxCell>
        <mxCell id="DHaG8NmXC3Zvu9ioILnj-7" value="LOGIN" style="rounded=1;whiteSpace=wrap;html=1;fillColor=#fff2cc;strokeColor=#d6b656;" vertex="1" parent="1">
          <mxGeometry x="470" y="55" width="150" height="60" as="geometry" />
        </mxCell>
        <mxCell id="DHaG8NmXC3Zvu9ioILnj-8" value="" style="rounded=1;whiteSpace=wrap;html=1;" vertex="1" parent="1">
          <mxGeometry x="80" y="280" width="220" height="290" as="geometry" />
        </mxCell>
        <mxCell id="DHaG8NmXC3Zvu9ioILnj-9" value="" style="shape=process;whiteSpace=wrap;html=1;backgroundOutline=1;" vertex="1" parent="1">
          <mxGeometry x="140" y="340" width="120" height="20" as="geometry" />
        </mxCell>
        <mxCell id="DHaG8NmXC3Zvu9ioILnj-15" value="Table" style="shape=table;html=1;whiteSpace=wrap;startSize=30;container=1;collapsible=0;childLayout=tableLayout;fixedRows=1;rowLines=0;fontStyle=1;align=center;" vertex="1" parent="1">
          <mxGeometry x="90" y="410" width="180" height="140" as="geometry" />
        </mxCell>
        <mxCell id="DHaG8NmXC3Zvu9ioILnj-16" value="" style="shape=partialRectangle;html=1;whiteSpace=wrap;collapsible=0;dropTarget=0;pointerEvents=0;fillColor=none;top=0;left=0;bottom=1;right=0;points=[[0,0.5],[1,0.5]];portConstraint=eastwest;" vertex="1" parent="DHaG8NmXC3Zvu9ioILnj-15">
          <mxGeometry y="30" width="180" height="20" as="geometry" />
        </mxCell>
        <mxCell id="DHaG8NmXC3Zvu9ioILnj-17" value="1" style="shape=partialRectangle;html=1;whiteSpace=wrap;connectable=0;fillColor=none;top=0;left=0;bottom=0;right=0;overflow=hidden;" vertex="1" parent="DHaG8NmXC3Zvu9ioILnj-16">
          <mxGeometry width="40" height="20" as="geometry" />
        </mxCell>
        <mxCell id="DHaG8NmXC3Zvu9ioILnj-18" value="Value 1" style="shape=partialRectangle;html=1;whiteSpace=wrap;connectable=0;fillColor=none;top=0;left=0;bottom=0;right=0;align=left;spacingLeft=6;overflow=hidden;" vertex="1" parent="DHaG8NmXC3Zvu9ioILnj-16">
          <mxGeometry x="40" width="140" height="20" as="geometry" />
        </mxCell>
        <mxCell id="DHaG8NmXC3Zvu9ioILnj-19" value="" style="shape=partialRectangle;html=1;whiteSpace=wrap;collapsible=0;dropTarget=0;pointerEvents=0;fillColor=none;top=0;left=0;bottom=0;right=0;points=[[0,0.5],[1,0.5]];portConstraint=eastwest;" vertex="1" parent="DHaG8NmXC3Zvu9ioILnj-15">
          <mxGeometry y="50" width="180" height="30" as="geometry" />
        </mxCell>
        <mxCell id="DHaG8NmXC3Zvu9ioILnj-20" value="2" style="shape=partialRectangle;html=1;whiteSpace=wrap;connectable=0;fillColor=none;top=0;left=0;bottom=0;right=0;overflow=hidden;" vertex="1" parent="DHaG8NmXC3Zvu9ioILnj-19">
          <mxGeometry width="40" height="30" as="geometry" />
        </mxCell>
        <mxCell id="DHaG8NmXC3Zvu9ioILnj-21" value="Value 2" style="shape=partialRectangle;html=1;whiteSpace=wrap;connectable=0;fillColor=none;top=0;left=0;bottom=0;right=0;align=left;spacingLeft=6;overflow=hidden;" vertex="1" parent="DHaG8NmXC3Zvu9ioILnj-19">
          <mxGeometry x="40" width="140" height="30" as="geometry" />
        </mxCell>
        <mxCell id="DHaG8NmXC3Zvu9ioILnj-22" value="" style="shape=partialRectangle;html=1;whiteSpace=wrap;collapsible=0;dropTarget=0;pointerEvents=0;fillColor=none;top=0;left=0;bottom=0;right=0;points=[[0,0.5],[1,0.5]];portConstraint=eastwest;" vertex="1" parent="DHaG8NmXC3Zvu9ioILnj-15">
          <mxGeometry y="80" width="180" height="30" as="geometry" />
        </mxCell>
        <mxCell id="DHaG8NmXC3Zvu9ioILnj-23" value="3" style="shape=partialRectangle;html=1;whiteSpace=wrap;connectable=0;fillColor=none;top=0;left=0;bottom=0;right=0;overflow=hidden;" vertex="1" parent="DHaG8NmXC3Zvu9ioILnj-22">
          <mxGeometry width="40" height="30" as="geometry" />
        </mxCell>
        <mxCell id="DHaG8NmXC3Zvu9ioILnj-24" value="Value 3" style="shape=partialRectangle;html=1;whiteSpace=wrap;connectable=0;fillColor=none;top=0;left=0;bottom=0;right=0;align=left;spacingLeft=6;overflow=hidden;" vertex="1" parent="DHaG8NmXC3Zvu9ioILnj-22">
          <mxGeometry x="40" width="140" height="30" as="geometry" />
        </mxCell>
        <mxCell id="DHaG8NmXC3Zvu9ioILnj-25" value="choose category" style="text;html=1;strokeColor=none;fillColor=none;align=center;verticalAlign=middle;whiteSpace=wrap;rounded=0;" vertex="1" parent="1">
          <mxGeometry x="160" y="300" width="100" height="20" as="geometry" />
        </mxCell>
        <mxCell id="DHaG8NmXC3Zvu9ioILnj-26" value="" style="rounded=1;whiteSpace=wrap;html=1;" vertex="1" parent="1">
          <mxGeometry x="460" y="260" width="310" height="290" as="geometry" />
        </mxCell>
        <mxCell id="DHaG8NmXC3Zvu9ioILnj-27" value="" style="shape=table;html=1;whiteSpace=wrap;startSize=0;container=1;collapsible=0;childLayout=tableLayout;" vertex="1" parent="1">
          <mxGeometry x="510" y="320" width="210" height="207.25" as="geometry" />
        </mxCell>
        <mxCell id="DHaG8NmXC3Zvu9ioILnj-28" value="" style="shape=partialRectangle;html=1;whiteSpace=wrap;collapsible=0;dropTarget=0;pointerEvents=0;fillColor=none;top=0;left=0;bottom=0;right=0;points=[[0,0.5],[1,0.5]];portConstraint=eastwest;" vertex="1" parent="DHaG8NmXC3Zvu9ioILnj-27">
          <mxGeometry width="210" height="80" as="geometry" />
        </mxCell>
        <mxCell id="DHaG8NmXC3Zvu9ioILnj-29" value="" style="shape=partialRectangle;html=1;whiteSpace=wrap;connectable=0;fillColor=none;top=0;left=0;bottom=0;right=0;overflow=hidden;" vertex="1" parent="DHaG8NmXC3Zvu9ioILnj-28">
          <mxGeometry width="70" height="80" as="geometry" />
        </mxCell>
        <mxCell id="DHaG8NmXC3Zvu9ioILnj-30" value="" style="shape=partialRectangle;html=1;whiteSpace=wrap;connectable=0;fillColor=none;top=0;left=0;bottom=0;right=0;overflow=hidden;" vertex="1" parent="DHaG8NmXC3Zvu9ioILnj-28">
          <mxGeometry x="70" width="70" height="80" as="geometry" />
        </mxCell>
        <mxCell id="DHaG8NmXC3Zvu9ioILnj-31" value="" style="shape=partialRectangle;html=1;whiteSpace=wrap;connectable=0;fillColor=none;top=0;left=0;bottom=0;right=0;overflow=hidden;" vertex="1" parent="DHaG8NmXC3Zvu9ioILnj-28">
          <mxGeometry x="140" width="70" height="80" as="geometry" />
        </mxCell>
        <mxCell id="DHaG8NmXC3Zvu9ioILnj-32" value="" style="shape=partialRectangle;html=1;whiteSpace=wrap;collapsible=0;dropTarget=0;pointerEvents=0;fillColor=none;top=0;left=0;bottom=0;right=0;points=[[0,0.5],[1,0.5]];portConstraint=eastwest;" vertex="1" parent="DHaG8NmXC3Zvu9ioILnj-27">
          <mxGeometry y="80" width="210" height="93" as="geometry" />
        </mxCell>
        <mxCell id="DHaG8NmXC3Zvu9ioILnj-33" value="" style="shape=partialRectangle;html=1;whiteSpace=wrap;connectable=0;fillColor=none;top=0;left=0;bottom=0;right=0;overflow=hidden;" vertex="1" parent="DHaG8NmXC3Zvu9ioILnj-32">
          <mxGeometry width="70" height="93" as="geometry" />
        </mxCell>
        <mxCell id="DHaG8NmXC3Zvu9ioILnj-34" value="" style="shape=partialRectangle;html=1;whiteSpace=wrap;connectable=0;fillColor=none;top=0;left=0;bottom=0;right=0;overflow=hidden;" vertex="1" parent="DHaG8NmXC3Zvu9ioILnj-32">
          <mxGeometry x="70" width="70" height="93" as="geometry" />
        </mxCell>
        <mxCell id="DHaG8NmXC3Zvu9ioILnj-35" value="" style="shape=partialRectangle;html=1;whiteSpace=wrap;connectable=0;fillColor=none;top=0;left=0;bottom=0;right=0;overflow=hidden;" vertex="1" parent="DHaG8NmXC3Zvu9ioILnj-32">
          <mxGeometry x="140" width="70" height="93" as="geometry" />
        </mxCell>
        <mxCell id="DHaG8NmXC3Zvu9ioILnj-36" value="" style="shape=partialRectangle;html=1;whiteSpace=wrap;collapsible=0;dropTarget=0;pointerEvents=0;fillColor=none;top=0;left=0;bottom=0;right=0;points=[[0,0.5],[1,0.5]];portConstraint=eastwest;" vertex="1" parent="DHaG8NmXC3Zvu9ioILnj-27">
          <mxGeometry y="173" width="210" height="34" as="geometry" />
        </mxCell>
        <mxCell id="DHaG8NmXC3Zvu9ioILnj-37" value="" style="shape=partialRectangle;html=1;whiteSpace=wrap;connectable=0;fillColor=none;top=0;left=0;bottom=0;right=0;overflow=hidden;" vertex="1" parent="DHaG8NmXC3Zvu9ioILnj-36">
          <mxGeometry width="70" height="34" as="geometry" />
        </mxCell>
        <mxCell id="DHaG8NmXC3Zvu9ioILnj-38" value="" style="shape=partialRectangle;html=1;whiteSpace=wrap;connectable=0;fillColor=none;top=0;left=0;bottom=0;right=0;overflow=hidden;" vertex="1" parent="DHaG8NmXC3Zvu9ioILnj-36">
          <mxGeometry x="70" width="70" height="34" as="geometry" />
        </mxCell>
        <mxCell id="DHaG8NmXC3Zvu9ioILnj-39" value="" style="shape=partialRectangle;html=1;whiteSpace=wrap;connectable=0;fillColor=none;top=0;left=0;bottom=0;right=0;overflow=hidden;" vertex="1" parent="DHaG8NmXC3Zvu9ioILnj-36">
          <mxGeometry x="140" width="70" height="34" as="geometry" />
        </mxCell>
        <mxCell id="DHaG8NmXC3Zvu9ioILnj-40" value="" style="rounded=1;whiteSpace=wrap;html=1;fillColor=#f5f5f5;strokeColor=#666666;fontColor=#333333;" vertex="1" parent="1">
          <mxGeometry x="735" y="30" width="250" height="160" as="geometry" />
        </mxCell>
        <mxCell id="DHaG8NmXC3Zvu9ioILnj-41" value="CALENDAR" style="rounded=1;whiteSpace=wrap;html=1;" vertex="1" parent="1">
          <mxGeometry x="550" y="260" width="120" height="30" as="geometry" />
        </mxCell>
        <mxCell id="DHaG8NmXC3Zvu9ioILnj-42" value="book service" style="rounded=1;whiteSpace=wrap;html=1;fillColor=#fff2cc;strokeColor=#d6b656;" vertex="1" parent="1">
          <mxGeometry x="830" y="90" width="120" height="35" as="geometry" />
        </mxCell>
        <mxCell id="DHaG8NmXC3Zvu9ioILnj-43" value="view profile" style="rounded=1;whiteSpace=wrap;html=1;fillColor=#e1d5e7;strokeColor=#9673a6;" vertex="1" parent="1">
          <mxGeometry x="830" y="40" width="120" height="40" as="geometry" />
        </mxCell>
        <mxCell id="DHaG8NmXC3Zvu9ioILnj-44" value="view my bookeed services" style="rounded=1;whiteSpace=wrap;html=1;fillColor=#ffe6cc;strokeColor=#d79b00;" vertex="1" parent="1">
          <mxGeometry x="830" y="130" width="120" height="35" as="geometry" />
        </mxCell>
        <mxCell id="DHaG8NmXC3Zvu9ioILnj-46" value="HI Dana!" style="text;html=1;strokeColor=none;fillColor=none;align=center;verticalAlign=middle;whiteSpace=wrap;rounded=0;" vertex="1" parent="1">
          <mxGeometry x="755" y="100" width="50" height="30" as="geometry" />
        </mxCell>
        <mxCell id="DHaG8NmXC3Zvu9ioILnj-47" value="" style="rounded=1;whiteSpace=wrap;html=1;fillColor=#f5f5f5;strokeColor=#666666;fontColor=#333333;" vertex="1" parent="1">
          <mxGeometry x="790" y="270" width="240" height="180" as="geometry" />
        </mxCell>
        <mxCell id="DHaG8NmXC3Zvu9ioILnj-48" value="HI Dana!" style="text;html=1;strokeColor=none;fillColor=none;align=center;verticalAlign=middle;whiteSpace=wrap;rounded=0;" vertex="1" parent="1">
          <mxGeometry x="812.5" y="341.25" width="50" height="38.75" as="geometry" />
        </mxCell>
        <mxCell id="DHaG8NmXC3Zvu9ioILnj-50" value="view profile" style="rounded=1;whiteSpace=wrap;html=1;fillColor=#e1d5e7;strokeColor=#9673a6;" vertex="1" parent="1">
          <mxGeometry x="880" y="280" width="120" height="40" as="geometry" />
        </mxCell>
        <mxCell id="DHaG8NmXC3Zvu9ioILnj-51" value="view my bookeed services" style="rounded=1;whiteSpace=wrap;html=1;fillColor=#ffe6cc;strokeColor=#d79b00;" vertex="1" parent="1">
          <mxGeometry x="880" y="331.25" width="120" height="37.5" as="geometry" />
        </mxCell>
        <mxCell id="DHaG8NmXC3Zvu9ioILnj-52" value="update my calendar" style="rounded=1;whiteSpace=wrap;html=1;fillColor=#dae8fc;strokeColor=#6c8ebf;" vertex="1" parent="1">
          <mxGeometry x="880" y="380" width="120" height="40" as="geometry" />
        </mxCell>
        <mxCell id="DHaG8NmXC3Zvu9ioILnj-54" value="&lt;font style=&quot;font-size: 14px&quot;&gt;&lt;b&gt;Provider&lt;/b&gt;&lt;/font&gt;" style="text;html=1;strokeColor=none;fillColor=none;align=center;verticalAlign=middle;whiteSpace=wrap;rounded=0;" vertex="1" parent="1">
          <mxGeometry x="855" y="220" width="130" height="30" as="geometry" />
        </mxCell>
        <mxCell id="DHaG8NmXC3Zvu9ioILnj-55" value="What is your" style="text;html=1;strokeColor=none;fillColor=none;align=center;verticalAlign=middle;whiteSpace=wrap;rounded=0;" vertex="1" parent="1">
          <mxGeometry x="70" y="20" width="160" height="30" as="geometry" />
        </mxCell>
        <mxCell id="DHaG8NmXC3Zvu9ioILnj-56" value="&lt;font style=&quot;font-size: 14px&quot;&gt;&lt;b&gt;Reciever&lt;/b&gt;&lt;/font&gt;" style="text;html=1;strokeColor=none;fillColor=none;align=center;verticalAlign=middle;whiteSpace=wrap;rounded=0;" vertex="1" parent="1">
          <mxGeometry x="780" width="140" height="20" as="geometry" />
        </mxCell>
        <mxCell id="DHaG8NmXC3Zvu9ioILnj-58" value="" style="ellipse;whiteSpace=wrap;html=1;aspect=fixed;" vertex="1" parent="1">
          <mxGeometry x="750" y="40" width="60" height="60" as="geometry" />
        </mxCell>
        <mxCell id="DHaG8NmXC3Zvu9ioILnj-60" value="" style="ellipse;whiteSpace=wrap;html=1;aspect=fixed;" vertex="1" parent="1">
          <mxGeometry x="810" y="280" width="60" height="60" as="geometry" />
        </mxCell>
        <mxCell id="DHaG8NmXC3Zvu9ioILnj-61" value="LOGOUT" style="rounded=1;whiteSpace=wrap;html=1;fillColor=#f8cecc;strokeColor=#b85450;" vertex="1" parent="1">
          <mxGeometry x="747.5" y="135" width="65" height="30" as="geometry" />
        </mxCell>
        <mxCell id="DHaG8NmXC3Zvu9ioILnj-62" value="LOGOUT" style="rounded=1;whiteSpace=wrap;html=1;fillColor=#f8cecc;strokeColor=#b85450;" vertex="1" parent="1">
          <mxGeometry x="805" y="385" width="65" height="30" as="geometry" />
        </mxCell>
      </root>
    </mxGraphModel>
  </diagram>
</mxfile>
